<?xml version="1.0" encoding="UTF-8" standalone="no"?>
<svg width="46px" height="31px" viewBox="0 0 46 31" version="1.1" xmlns="http://www.w3.org/2000/svg" xmlns:xlink="http://www.w3.org/1999/xlink">
    <!-- Generator: Sketch 39.1 (31720) - http://www.bohemiancoding.com/sketch -->
    <title>crown-logo-white</title>
    <desc>Created with Sketch.</desc>
    <defs></defs>
    <g id="Page-1" stroke="none" stroke-width="1" fill="none" fill-rule="evenodd">
        <g id="Desktop-HD" transform="translate(-697.000000, -347.000000)" fill="#FFFFFF">
            <g id="crown-logo-white" transform="translate(697.000000, 347.000000)">
                <g id="Layer_1">
                    <path d="M40.7309091,10.6226667 C38.8490909,13.144 33.2454545,20.2533333 35.7127273,8.556 L35.8381818,8.22533333 C34.96,8.26666667 34.1236364,7.85333333 33.6218182,7.192 C32.9945455,9.09333333 29.6490909,19.096 30.1090909,7.02666667 L30.2345455,6.076 C30.1927273,6.11733333 30.1090909,6.11733333 30.0672727,6.15866667 C29.2309091,6.448 28.3109091,6.28266667 27.6418182,5.74533333 C27.5581818,6.324 27.5163636,6.944 27.4745455,7.23333333 C27.4745455,7.316 27.4745455,7.44 27.4327273,7.564 C27.14,8.928 26.5545455,11.7386667 25.8018182,13.2266667 C25.5927273,13.64 25.4254545,13.888 25.3,13.9706667 C25.3,13.9706667 25.2581818,13.888 25.1327273,13.64 C24.6309091,12.772 24.1290909,9.176 23.6690909,5.332 C23.46,5.37333333 23.2509091,5.41466667 23,5.41466667 C22.7909091,5.41466667 22.54,5.37333333 22.3309091,5.332 C21.8709091,9.176 21.3690909,12.772 20.8672727,13.64 C20.7418182,13.8466667 20.7,13.9706667 20.7,13.9706667 C20.5745455,13.9293333 20.3654545,13.64 20.1981818,13.2266667 C19.4454545,11.7386667 18.8181818,8.928 18.5672727,7.564 C18.5254545,7.39866667 18.5254545,7.316 18.5254545,7.23333333 C18.4836364,6.944 18.4418182,6.36533333 18.3581818,5.74533333 C17.6890909,6.28266667 16.8109091,6.448 15.9327273,6.15866667 C15.8909091,6.11733333 15.8072727,6.11733333 15.7654545,6.076 L15.8909091,7.02666667 C16.3509091,19.096 13.0054545,9.09333333 12.3781818,7.192 C11.8345455,7.85333333 11.04,8.22533333 10.1618182,8.22533333 L10.2872727,8.556 C12.7963636,20.2533333 7.15090909,13.144 5.26909091,10.6226667 C4.93454545,10.9533333 4.51636364,11.2013333 4.05636364,11.3666667 L8.94909091,22.196 C8.86545455,22.2373333 8.74,22.2373333 8.65636364,22.2786667 C8.53090909,22.2786667 8.36363636,22.32 8.23818182,22.3613333 C7.65272727,22.6093333 7.36,23.1466667 7.52727273,23.56 C7.69454545,23.932 8.15454545,24.0973333 8.65636364,23.9733333 L8.65636364,24.0146667 C8.65636364,24.0146667 8.78181818,23.9733333 8.99090909,23.8906667 L8.99090909,29.0573333 C8.86545455,29.0986667 8.74,29.14 8.61454545,29.1813333 C8.48909091,29.1813333 8.32181818,29.2226667 8.19636364,29.264 C7.61090909,29.512 7.31818182,30.0493333 7.48545455,30.4626667 C7.65272727,30.8346667 8.11272727,31 8.61454545,30.876 L8.61454545,30.876 C8.65636364,30.876 14.4690909,28.8506667 22.9163636,28.8506667 C31.3636364,28.8506667 37.1763636,30.876 37.2181818,30.876 L37.2181818,30.876 C37.72,31 38.2218182,30.8346667 38.3472727,30.4626667 C38.5145455,30.0493333 38.2218182,29.512 37.6363636,29.264 C37.5109091,29.2226667 37.3436364,29.1813333 37.2181818,29.1813333 C37.0927273,29.14 37.0090909,29.0986667 36.8418182,29.0573333 L36.8418182,23.8906667 C37.0509091,23.9733333 37.1763636,24.0146667 37.1763636,24.0146667 L37.1763636,23.9733333 C37.6781818,24.0973333 38.18,23.932 38.3054545,23.56 C38.4727273,23.1466667 38.18,22.6093333 37.5945455,22.3613333 C37.4690909,22.32 37.3018182,22.2786667 37.1763636,22.2786667 C37.2181818,22.196 37.1345455,22.196 37.0090909,22.1546667 L41.9018182,11.3253333 C41.4418182,11.2013333 41.0654545,10.9533333 40.7309091,10.6226667 L40.7309091,10.6226667 Z M17.0618182,7.564 L17.2709091,7.52266667 C17.2709091,7.60533333 17.3127273,7.688 17.3127273,7.77066667 C17.5218182,8.804 19.1527273,16.0373333 20.24,16.4506667 C20.6163636,16.5746667 21.2854545,16.5333333 21.6618182,15.8306667 C22.2054545,14.756 22.6236364,12.8546667 22.9581818,11.0773333 C23.2509091,12.8546667 23.7109091,14.756 24.2545455,15.8306667 C24.5890909,16.5333333 25.3,16.616 25.6763636,16.4506667 C26.7636364,16.0373333 28.3945455,8.804 28.6036364,7.77066667 C28.6036364,7.688 28.6454545,7.60533333 28.6454545,7.52266667 L28.8545455,7.564 C28.52,17.3186667 29.5654545,18.5173333 30.8618182,16.8226667 L29.4818182,20.6666667 C27.5581818,20.4186667 25.3836364,20.2946667 22.9581818,20.2946667 C20.5745455,20.2946667 18.3581818,20.46 16.4345455,20.6666667 L15.0963636,16.8226667 C16.3509091,18.5173333 17.4381818,17.2773333 17.0618182,7.564 L17.0618182,7.564 Z M11.8345455,10.292 L11.8345455,10.292 C11.8345455,10.292 11.7927273,10.292 11.8345455,10.292 L11.8345455,10.292 L11.8345455,10.292 Z M11.2490909,28.4786667 C10.8727273,28.5613333 10.5381818,28.644 10.2036364,28.7266667 L10.2036364,23.5186667 C10.4963636,23.436 10.8727273,23.3533333 11.2490909,23.2706667 L11.2490909,28.4786667 L11.2490909,28.4786667 Z M10.12,21.824 L7.02545455,15.0453333 C7.90363636,16.0373333 8.86545455,16.9466667 9.70181818,17.484 L11.3327273,21.5346667 C10.8727273,21.6586667 10.4963636,21.7413333 10.12,21.824 L10.12,21.824 Z M11.6672727,20.1293333 L10.7890909,17.9386667 C11.2490909,18.0213333 11.6254545,17.856 11.9181818,17.4013333 L13.4236364,21.1626667 C13.0054545,21.2453333 12.5872727,21.328 12.2109091,21.4106667 L11.6672727,20.1293333 L11.6672727,20.1293333 Z M13.5072727,28.024 C13.1309091,28.1066667 12.7963636,28.148 12.4618182,28.2306667 L12.4618182,23.0226667 C12.7963636,22.94 13.1309091,22.8986667 13.5072727,22.816 L13.5072727,28.024 L13.5072727,28.024 Z M12.2945455,16.0786667 C12.42,15.128 12.3363636,13.8053333 12.0854545,11.9866667 L15.5981818,20.7906667 C15.1381818,20.8733333 14.6781818,20.9146667 14.26,20.9973333 L12.2945455,16.0786667 L12.2945455,16.0786667 Z M31.4472727,27.8586667 C29.1054545,27.4866667 26.22,27.1973333 23,27.1973333 C19.7381818,27.1973333 16.8527273,27.4866667 14.5527273,27.8586667 L14.5527273,22.6506667 C16.8527273,22.2786667 19.7381818,21.9893333 23,21.9893333 C26.2618182,21.9893333 29.1472727,22.2786667 31.4472727,22.6506667 L31.4472727,27.8586667 L31.4472727,27.8586667 Z M30.36,20.7906667 L33.8727273,11.9866667 C33.6218182,13.8053333 33.58,15.128 33.6636364,16.0786667 L31.6981818,20.9973333 C31.28,20.9146667 30.8618182,20.8733333 30.36,20.7906667 L30.36,20.7906667 Z M33.4963636,28.2306667 C33.1618182,28.148 32.8272727,28.1066667 32.4509091,28.024 L32.4509091,22.816 C32.8272727,22.8986667 33.1618182,22.94 33.4963636,23.0226667 L33.4963636,28.2306667 L33.4963636,28.2306667 Z M33.7890909,21.3693333 C33.4127273,21.2866667 32.9945455,21.204 32.5763636,21.1213333 L34.0818182,17.36 C34.3327273,17.8146667 34.7509091,17.9386667 35.2109091,17.8973333 L34.2909091,20.1293333 L33.7890909,21.3693333 L33.7890909,21.3693333 Z M35.7127273,28.7266667 C35.3781818,28.644 35.0436364,28.5613333 34.6672727,28.4786667 L34.6672727,23.2706667 C35.0436364,23.3533333 35.3781818,23.436 35.7127273,23.5186667 L35.7127273,28.7266667 L35.7127273,28.7266667 Z M35.8381818,21.824 C35.4618182,21.7413333 35.0854545,21.6173333 34.6254545,21.5346667 L36.2563636,17.484 C37.0927273,16.9466667 38.0545455,16.0373333 38.9327273,15.0453333 L35.8381818,21.824 L35.8381818,21.824 Z M1.79818182,7.192 L1.79818182,7.192 C2.42545455,7.192 2.92727273,6.696 2.92727273,6.076 C2.92727273,5.456 2.42545455,4.96 1.79818182,4.96 L1.79818182,4.96 C1.17090909,4.96 0.669090909,5.456 0.669090909,6.076 C0.669090909,6.696 1.17090909,7.192 1.79818182,7.192 L1.79818182,7.192 Z M5.72909091,8.308 C5.72909091,7.10933333 4.93454545,6.11733333 3.84727273,5.74533333 C3.84727273,5.828 3.88909091,5.952 3.88909091,6.03466667 C3.88909091,7.192 2.96909091,8.10133333 1.79818182,8.10133333 L1.79818182,8.10133333 C1.25454545,8.14266667 0.794545455,7.936 0.418181818,7.64666667 C0.376363636,7.85333333 0.334545455,8.10133333 0.334545455,8.34933333 C0.334545455,9.38266667 0.92,10.292 1.79818182,10.7466667 C2.17454545,10.9533333 2.59272727,11.036 3.05272727,11.036 C4.51636364,10.9946667 5.72909091,9.796 5.72909091,8.308 L5.72909091,8.308 Z M15.1381818,25.296 L17.8145455,26.66 L19.9890909,24.5933333 L17.3127273,23.2293333 L15.1381818,25.296 L15.1381818,25.296 Z M20.7418182,24.5933333 L23,26.2053333 L25.2581818,24.5933333 L23,23.0226667 L20.7418182,24.5933333 L20.7418182,24.5933333 Z M25.2163636,17.8973333 L23,16.2853333 L20.7418182,17.856 L23,19.468 L25.2163636,17.8973333 L25.2163636,17.8973333 Z M9.36727273,4.29866667 L9.57636364,4.29866667 C10.0363636,4.29866667 10.4545455,3.968 10.5381818,3.51333333 C10.6636364,2.976 10.2872727,2.48 9.78545455,2.39733333 L9.57636364,2.39733333 C9.11636364,2.39733333 8.69818182,2.728 8.61454545,3.18266667 C8.48909091,3.67866667 8.82363636,4.17466667 9.36727273,4.29866667 L9.36727273,4.29866667 Z M9.57636364,7.64666667 C9.66,7.64666667 9.70181818,7.688 9.78545455,7.688 C11.04,7.936 12.2945455,7.15066667 12.5454545,5.86933333 C12.7545455,4.87733333 12.2527273,3.88533333 11.3745455,3.38933333 C11.3745455,3.472 11.3745455,3.55466667 11.3327273,3.63733333 C11.1654545,4.464 10.4127273,5.04266667 9.57636364,5.04266667 C9.45090909,5.04266667 9.32545455,5.04266667 9.24181818,5.00133333 C8.78181818,4.91866667 8.40545455,4.67066667 8.15454545,4.34 C8.07090909,4.50533333 7.98727273,4.712 7.94545455,4.91866667 C7.69454545,6.2 8.40545455,7.316 9.57636364,7.64666667 L9.57636364,7.64666667 Z M16.1,2.604 C16.1836364,2.64533333 16.3090909,2.64533333 16.3927273,2.64533333 C16.7690909,2.64533333 17.1036364,2.43866667 17.2290909,2.06666667 C17.3963636,1.612 17.1454545,1.116 16.6854545,0.950666667 C16.6018182,0.909333333 16.4763636,0.909333333 16.3927273,0.909333333 C16.0163636,0.909333333 15.6818182,1.116 15.5563636,1.488 C15.3890909,1.94266667 15.64,2.43866667 16.1,2.604 L16.1,2.604 Z M16.0163636,5.704 C16.1418182,5.74533333 16.2672727,5.78666667 16.3927273,5.78666667 C17.3963636,5.952 18.3581818,5.37333333 18.6927273,4.42266667 C18.9854545,3.55466667 18.6927273,2.604 17.9818182,2.06666667 C17.9818182,2.14933333 17.94,2.232 17.8981818,2.31466667 C17.6472727,2.976 17.02,3.38933333 16.3509091,3.38933333 C16.1836364,3.38933333 15.9745455,3.348 15.8072727,3.30666667 C15.4309091,3.18266667 15.0963636,2.89333333 14.9290909,2.56266667 L14.6781818,3.05866667 C14.3436364,4.13333333 14.9290909,5.332 16.0163636,5.704 L16.0163636,5.704 Z M21.9963636,4.67066667 C22.2890909,4.836 22.6236364,4.91866667 22.9581818,4.91866667 L22.9581818,4.91866667 C23.2927273,4.91866667 23.6272727,4.836 23.92,4.67066667 C24.5472727,4.34 24.9236364,3.72 24.9654545,3.05866667 L24.9654545,2.81066667 C24.9654545,2.52133333 24.8818182,2.232 24.7145455,1.984 C24.6309091,1.81866667 24.5054545,1.69466667 24.4218182,1.57066667 C24.2963636,1.90133333 24.0454545,2.19066667 23.7109091,2.39733333 C23.46,2.52133333 23.2090909,2.604 22.9581818,2.604 L22.9581818,2.604 C22.7072727,2.604 22.4563636,2.56266667 22.2054545,2.39733333 C21.8709091,2.19066667 21.62,1.90133333 21.4945455,1.57066667 C21.3690909,1.69466667 21.2854545,1.81866667 21.2018182,1.984 C21.0345455,2.232 20.9927273,2.52133333 20.9509091,2.81066667 L20.9509091,3.05866667 C21.0345455,3.72 21.4109091,4.34 21.9963636,4.67066667 L21.9963636,4.67066667 Z M22.5818182,1.77733333 C22.7072727,1.86 22.8327273,1.86 22.9581818,1.86 L22.9581818,1.86 C23.0836364,1.86 23.2090909,1.81866667 23.3345455,1.77733333 C23.7527273,1.57066667 23.8781818,1.03333333 23.6690909,0.661333333 C23.5018182,0.372 23.2509091,0.248 22.9581818,0.248 L22.9581818,0.248 C22.6654545,0.248 22.3727273,0.413333333 22.2472727,0.661333333 C22.0381818,1.03333333 22.1636364,1.52933333 22.5818182,1.77733333 L22.5818182,1.77733333 Z M44.16,7.192 C44.7872727,7.192 45.2890909,6.696 45.2890909,6.076 C45.2890909,5.456 44.7872727,4.96 44.16,4.96 C43.5327273,4.96 43.0309091,5.456 43.0309091,6.076 C43.0309091,6.696 43.5327273,7.192 44.16,7.192 L44.16,7.192 Z M45.54,7.64666667 C45.1636364,7.97733333 44.7036364,8.14266667 44.16,8.14266667 C42.9890909,8.14266667 42.0690909,7.23333333 42.0690909,6.076 L42.0690909,5.78666667 C40.9818182,6.11733333 40.1872727,7.15066667 40.1872727,8.34933333 C40.1872727,9.83733333 41.4,11.036 42.9054545,11.036 C43.3654545,11.036 43.7836364,10.912 44.16,10.7466667 C45.0381818,10.292 45.6236364,9.424 45.6236364,8.34933333 C45.6236364,8.10133333 45.6236364,7.85333333 45.54,7.64666667 L45.54,7.64666667 Z M30.82,25.296 L28.6454545,23.2293333 L25.9272727,24.5933333 L28.1018182,26.66 L30.82,25.296 L30.82,25.296 Z M36.2145455,7.72933333 C36.2981818,7.72933333 36.34,7.688 36.4236364,7.688 C37.5527273,7.35733333 38.3054545,6.2 38.0545455,5.04266667 C38.0127273,4.836 37.9290909,4.62933333 37.8454545,4.464 C37.5945455,4.79466667 37.2181818,5.04266667 36.7581818,5.12533333 C36.6327273,5.16666667 36.5072727,5.16666667 36.4236364,5.16666667 C35.5872727,5.16666667 34.8345455,4.588 34.6672727,3.76133333 C34.6672727,3.67866667 34.6254545,3.596 34.6254545,3.51333333 C33.7472727,4.00933333 33.2872727,4.96 33.4545455,5.99333333 C33.7054545,7.15066667 34.96,7.97733333 36.2145455,7.72933333 L36.2145455,7.72933333 Z M36.4236364,4.29866667 L36.6327273,4.29866667 C37.1763636,4.17466667 37.5109091,3.67866667 37.3854545,3.18266667 C37.3018182,2.728 36.8836364,2.39733333 36.4236364,2.39733333 L36.2145455,2.39733333 C35.6709091,2.52133333 35.3363636,3.01733333 35.4618182,3.51333333 C35.5454545,4.00933333 35.9636364,4.29866667 36.4236364,4.29866667 L36.4236364,4.29866667 Z M29.5654545,5.78666667 C29.6909091,5.78666667 29.8163636,5.74533333 29.9418182,5.704 C30.82,5.41466667 31.3636364,4.588 31.3636364,3.72 L31.3636364,3.67866667 C31.3636364,3.472 31.3218182,3.224 31.2381818,3.01733333 C31.1963636,2.852 31.0709091,2.68666667 30.9872727,2.52133333 C30.82,2.852 30.4854545,3.1 30.1090909,3.26533333 C29.9418182,3.30666667 29.7327273,3.348 29.5654545,3.348 C28.8963636,3.348 28.2690909,2.93466667 28.0181818,2.27333333 C27.9763636,2.19066667 27.9763636,2.108 27.9763636,2.02533333 C27.2654545,2.56266667 26.9309091,3.51333333 27.2654545,4.38133333 C27.6,5.37333333 28.5618182,5.952 29.5654545,5.78666667 L29.5654545,5.78666667 Z M29.5654545,2.64533333 C29.6490909,2.64533333 29.7745455,2.64533333 29.8581818,2.604 C30.3181818,2.43866667 30.5690909,1.94266667 30.4018182,1.488 C30.2763636,1.116 29.9418182,0.909333333 29.5654545,0.909333333 C29.4818182,0.909333333 29.3563636,0.909333333 29.2727273,0.950666667 C28.8127273,1.116 28.5618182,1.612 28.7290909,2.06666667 C28.8545455,2.39733333 29.1890909,2.64533333 29.5654545,2.64533333 L29.5654545,2.64533333 Z" id="Shape"></path>
                </g>
            </g>
        </g>
    </g>
</svg>